HIERARCHY
ROOT hip
{
  OFFSET 0 0 0
  CHANNELS 6 Xposition Yposition Zposition Zrotation Yrotation Xrotation
  JOINT abdomen
  {
    OFFSET 0 20.6881 -0.73152
    CHANNELS 3 Zrotation Xrotation Yrotation
    JOINT chest
    {
      OFFSET 0 11.7043 -0.48768
      CHANNELS 3 Zrotation Xrotation Yrotation
      JOINT neck
      {
        OFFSET 0 22.1894 -2.19456
        CHANNELS 3 Zrotation Xrotation Yrotation
        JOINT head
        {
          OFFSET -0.24384 7.07133 1.2192
          CHANNELS 3 Zrotation Xrotation Yrotation
          JOINT leftEye
          {
            OFFSET 4.14528 8.04674 8.04672
            CHANNELS 3 Zrotation Xrotation Yrotation
            End Site
            {
              OFFSET 1 0 0
            }
          }
          JOINT rightEye
          {
            OFFSET -3.6576 8.04674 8.04672
            CHANNELS 3 Zrotation Xrotation Yrotation
            End Site
            {
              OFFSET 1 0 0
            }
          }
        }
      }
      JOINT rCollar
      {
        OFFSET -2.68224 19.2634 -4.8768
        CHANNELS 3 Zrotation Xrotation Yrotation
        JOINT rShldr
        {
          OFFSET -8.77824 -1.95073 1.46304
          CHANNELS 3 Zrotation Xrotation Yrotation
          JOINT rForeArm
          {
            OFFSET -28.1742 -1.7115 0.48768
            CHANNELS 3 Zrotation Xrotation Yrotation
            JOINT rHand
            {
              OFFSET -22.5879 0.773209 7.07136
              CHANNELS 3 Zrotation Xrotation Yrotation
              JOINT rThumb1
              {
                OFFSET -1.2192 -0.487915 3.41376
                CHANNELS 3 Zrotation Xrotation Yrotation
                JOINT rThumb2
                {
                  OFFSET -3.37035 -0.52449 3.41376
                  CHANNELS 3 Zrotation Xrotation Yrotation
                  End Site
                  {
                    OFFSET -1.78271 -1.18214 1.43049
                  }
                }
              }
              JOINT rIndex1
              {
                OFFSET -7.75947 0.938293 5.60832
                CHANNELS 3 Zrotation Xrotation Yrotation
                JOINT rIndex2
                {
                  OFFSET -2.54057 -0.884171 1.56538
                  CHANNELS 3 Zrotation Xrotation Yrotation
                  End Site
                  {
                    OFFSET -1.62519 -0.234802 1.16502
                  }
                }
              }
              JOINT rMid1
              {
                OFFSET -8.24714 1.18213 3.41376
                CHANNELS 3 Zrotation Xrotation Yrotation
                JOINT rMid2
                {
                  OFFSET -3.10165 -0.590103 1.0647
                  CHANNELS 3 Zrotation Xrotation Yrotation
                  End Site
                  {
                    OFFSET -2.48547 -0.328903 0.83742
                  }
                }
              }
              JOINT rRing1
              {
                OFFSET -8.82822 0.546677 1.51678
                CHANNELS 3 Zrotation Xrotation Yrotation
                JOINT rRing2
                {
                  OFFSET -2.60934 -0.819778 -0.0198488
                  CHANNELS 3 Zrotation Xrotation Yrotation
                  End Site
                  {
                    OFFSET -2.33842 -0.294052 0.168128
                  }
                }
              }
              JOINT rPinky1
              {
                OFFSET -8.27202 -0.0477905 -0.4584
                CHANNELS 3 Zrotation Xrotation Yrotation
                JOINT rPinky2
                {
                  OFFSET -1.82734 -0.647385 -0.700984
                  CHANNELS 3 Zrotation Xrotation Yrotation
                  End Site
                  {
                    OFFSET -1.69225 -0.51767 -0.607171
                  }
                }
              }
            }
          }
        }
      }
      JOINT lCollar
      {
        OFFSET 2.68224 19.2634 -4.8768
        CHANNELS 3 Zrotation Xrotation Yrotation
        JOINT lShldr
        {
          OFFSET 8.77824 -1.95073 1.46304
          CHANNELS 3 Zrotation Xrotation Yrotation
          JOINT lForeArm
          {
            OFFSET 28.1742 -1.7115 0.48768
            CHANNELS 3 Zrotation Xrotation Yrotation
            JOINT lHand
            {
              OFFSET 22.5879 0.773209 7.07136
              CHANNELS 3 Zrotation Xrotation Yrotation
              JOINT lThumb1
              {
                OFFSET 1.2192 -0.487915 3.41376
                CHANNELS 3 Zrotation Xrotation Yrotation
                JOINT lThumb2
                {
                  OFFSET 3.37035 -0.52449 3.41376
                  CHANNELS 3 Zrotation Xrotation Yrotation
                  End Site
                  {
                    OFFSET 1.78271 -1.18214 1.43049
                  }
                }
              }
              JOINT lIndex1
              {
                OFFSET 7.75947 0.938293 5.60832
                CHANNELS 3 Zrotation Xrotation Yrotation
                JOINT lIndex2
                {
                  OFFSET 2.54057 -0.884171 1.56538
                  CHANNELS 3 Zrotation Xrotation Yrotation
                  End Site
                  {
                    OFFSET 1.62519 -0.234802 1.16502
                  }
                }
              }
              JOINT lMid1
              {
                OFFSET 8.24714 1.18213 3.41376
                CHANNELS 3 Zrotation Xrotation Yrotation
                JOINT lMid2
                {
                  OFFSET 3.10165 -0.590103 1.0647
                  CHANNELS 3 Zrotation Xrotation Yrotation
                  End Site
                  {
                    OFFSET 2.48547 -0.328903 0.83742
                  }
                }
              }
              JOINT lRing1
              {
                OFFSET 8.82822 0.546677 1.51678
                CHANNELS 3 Zrotation Xrotation Yrotation
                JOINT lRing2
                {
                  OFFSET 2.60934 -0.819778 -0.0198488
                  CHANNELS 3 Zrotation Xrotation Yrotation
                  End Site
                  {
                    OFFSET 2.33842 -0.294052 0.168128
                  }
                }
              }
              JOINT lPinky1
              {
                OFFSET 8.27202 -0.0477905 -0.4584
                CHANNELS 3 Zrotation Xrotation Yrotation
                JOINT lPinky2
                {
                  OFFSET 1.82734 -0.647385 -0.700984
                  CHANNELS 3 Zrotation Xrotation Yrotation
                  End Site
                  {
                    OFFSET 1.69225 -0.51767 -0.607171
                  }
                }
              }
            }
          }
        }
      }
    }
  }
  JOINT rButtock
  {
    OFFSET -8.77824 4.35084 1.2192
    CHANNELS 3 Zrotation Xrotation Yrotation
    JOINT rThigh
    {
      OFFSET 0 -1.70687 -2.19456
      CHANNELS 3 Zrotation Xrotation Yrotation
      JOINT rShin
      {
        OFFSET 0 -36.8199 0.73152
        CHANNELS 3 Zrotation Xrotation Yrotation
        JOINT rFoot
        {
          OFFSET 0.73152 -45.1104 -5.12064
          CHANNELS 3 Zrotation Xrotation Yrotation
          End Site
          {
            OFFSET -1.1221 -3.69964 12.103
          }
        }
      }
    }
  }
  JOINT lButtock
  {
    OFFSET 8.77824 4.35084 1.2192
    CHANNELS 3 Zrotation Xrotation Yrotation
    JOINT lThigh
    {
      OFFSET 0 -1.70687 -2.19456
      CHANNELS 3 Zrotation Xrotation Yrotation
      JOINT lShin
      {
        OFFSET 0 -36.8199 0.73152
        CHANNELS 3 Zrotation Xrotation Yrotation
        JOINT lFoot
        {
          OFFSET -0.73152 -45.1104 -5.12064
          CHANNELS 3 Zrotation Xrotation Yrotation
          End Site
          {
            OFFSET 1.1221 -3.69964 12.103
          }
        }
      }
    }
  }
}
MOTION
Frames:	9
Frame Time:	0.00833333
-43.0898 83.7995 19.351 -2.013 27.343 2.4035 2.68173 5.69595 3.03719 1.03498 -2.67194 0.859683 -8.8748 0.174381 -2.99731 6.74036 4.37127 -3.50634 -0.0 0.0 0.0 -0.0 0.0 0.0 3.58021e-14 -9.84181e-14 -2.91176e-17 75.9512 11.543 -1.23788 -16.5504 -9.20871 30.8438 -0.00517228 2.07016 0.291067 5.21482e-10 -6.27971e-10 -7.83614e-11 9.04932e-10 -1.08641e-09 -1.38768e-10 5.21486e-10 -6.27973e-10 -7.83657e-11 7.73091 5.47488 0.417314 5.21482e-10 -6.27973e-10 -7.83614e-11 2.90554 0.965183 0.102902 5.21482e-10 -6.27973e-10 -7.83572e-11 10.2786 0.731801 0.0259123 5.21475e-10 -6.27969e-10 -7.83482e-11 2.22167 -0.733487 -0.20892 3.57378e-14 -9.84162e-14 -2.72155e-16 -84.9903 4.3435 4.64283 9.41068 -3.7908 -16.7011 0.465984 19.0346 -2.77918 3.33491e-10 7.40822e-10 -1.91186e-09 5.4472e-10 1.28628e-09 -3.30988e-09 3.33488e-10 7.40825e-10 -1.91185e-09 -7.73091 5.47488 -0.417314 3.33493e-10 7.40825e-10 -1.91186e-09 -2.90554 0.965183 -0.102902 3.33489e-10 7.40823e-10 -1.91186e-09 -10.2786 0.731801 -0.0259123 3.33492e-10 7.40824e-10 -1.91187e-09 -2.22167 -0.733487 0.20892 -2.03217e-16 0.0 -3.88251e-19 1.23257 1.2785 0.646319 -0.21829 32.382 0.494418 -0.824535 -0.27378 -3.65372 2.03217e-16 0.0 3.88251e-19 -1.73363 -29.6808 1.33902 0.126043 23.1305 -0.0408899 0.799455 -0.360674 4.12521
-42.4641 83.7908 19.9892 -1.5737 27.7608 2.4556 2.0978 5.78055 2.82803 1.14454 -2.60767 0.784846 -8.98895 -0.0159783 -3.0325 6.83882 4.50698 -3.52894 -0.0 0.0 0.0 -0.0 0.0 0.0 6.79265e-15 -1.98808e-14 -6.02815e-14 76.2056 11.0639 -1.40005 -16.5651 -9.22295 30.8747 -0.00633267 2.27156 0.319417 1.17083e-09 -1.09887e-09 -3.23243e-10 2.02736e-09 -1.89723e-09 -5.65367e-10 1.17083e-09 -1.09887e-09 -3.23246e-10 7.73091 5.47488 0.417314 1.17083e-09 -1.09887e-09 -3.23243e-10 2.90554 0.965183 0.102902 1.17083e-09 -1.09887e-09 -3.23239e-10 10.2786 0.731801 0.0259123 1.17082e-09 -1.09887e-09 -3.2323e-10 2.22167 -0.733487 -0.20892 6.72513e-15 -1.98763e-14 -6.05299e-14 -85.0092 4.41223 4.59608 9.44795 -3.81263 -16.7703 0.452046 18.7599 -2.73602 8.85896e-10 1.27849e-09 -1.74003e-09 1.50099e-09 2.21795e-09 -3.02305e-09 8.85894e-10 1.2785e-09 -1.74002e-09 -7.73091 5.47488 -0.417314 8.85897e-10 1.27849e-09 -1.74003e-09 -2.90554 0.965183 -0.102902 8.85894e-10 1.27849e-09 -1.74003e-09 -10.2786 0.731801 -0.0259123 8.85895e-10 1.27849e-09 -1.74004e-09 -2.22167 -0.733487 0.20892 -2.03217e-16 0.0 -3.88251e-19 0.516857 -0.0116875 0.358897 -0.262816 35.1163 0.52082 -0.655166 1.86009 -2.88165 2.03217e-16 0.0 3.88251e-19 -2.41054 -29.1349 1.57505 0.126865 23.2745 -0.00829891 0.729733 -0.230348 3.35815
-41.8431 83.6983 20.6098 -1.24 28.2496 2.4653 1.82479 5.86319 2.6674 1.1515 -2.58766 0.726336 -9.0266 -0.0915276 -3.0731 6.81316 4.46165 -3.58562 -0.0 0.0 0.0 -0.0 0.0 0.0 -6.57982e-15 -1.43766e-14 1.36338e-14 76.4927 10.5645 -1.62095 -16.6015 -9.25836 30.9528 -0.00721276 2.41993 0.340304 9.78466e-10 -1.04023e-09 -1.20947e-10 1.69528e-09 -1.79741e-09 -2.14329e-10 9.7847e-10 -1.04023e-09 -1.20952e-10 7.73091 5.47488 0.417314 9.78466e-10 -1.04023e-09 -1.20949e-10 2.90554 0.965183 0.102902 9.78468e-10 -1.04023e-09 -1.20943e-10 10.2786 0.731801 0.0259123 9.7846e-10 -1.04023e-09 -1.20934e-10 2.22167 -0.733487 -0.20892 -6.66815e-15 -1.4373e-14 1.33931e-14 -85.0089 4.53281 4.58072 9.49156 -3.83802 -16.8515 0.442335 18.5628 -2.70517 6.96945e-10 8.33018e-10 -1.69087e-09 1.17611e-09 1.44681e-09 -2.93548e-09 6.9694e-10 8.33019e-10 -1.69086e-09 -7.73091 5.47488 -0.417314 6.96946e-10 8.33019e-10 -1.69087e-09 -2.90554 0.965183 -0.102902 6.96942e-10 8.33018e-10 -1.69087e-09 -10.2786 0.731801 -0.0259123 6.96945e-10 8.33018e-10 -1.69089e-09 -2.22167 -0.733487 0.20892 -2.03217e-16 0.0 -3.88251e-19 -0.023005 -1.35439 -0.0356269 -0.311781 37.7923 0.557445 -0.524907 4.25903 -1.9954 2.03217e-16 0.0 3.88251e-19 -2.8286 -28.715 1.776 0.129028 23.5713 0.0175572 0.667315 -0.17066 2.56372
-41.3238 83.5996 21.2303 -1.2412 28.6303 2.368 1.74392 5.96078 2.52481 1.09791 -2.58808 0.674527 -9.02368 -0.110842 -3.12268 6.71581 4.29006 -3.67042 -0.0 0.0 0.0 -0.0 0.0 0.0 -1.32114e-14 -4.8703e-14 1.60543e-13 76.7983 10.0249 -1.86483 -16.6483 -9.30384 31.0531 -0.0080463 2.5571 0.359618 3.49207e-10 -7.18509e-10 3.36369e-10 6.08261e-10 -1.2453e-09 5.79971e-10 3.49211e-10 -7.18516e-10 3.36361e-10 7.73091 5.47488 0.417314 3.49208e-10 -7.18509e-10 3.36364e-10 2.90554 0.965183 0.102902 3.49212e-10 -7.1851e-10 3.36372e-10 10.2786 0.731801 0.0259123 3.49203e-10 -7.18509e-10 3.36384e-10 2.22167 -0.733487 -0.20892 -1.33303e-14 -4.87023e-14 1.6032e-13 -84.9963 4.72912 4.56296 9.54516 -3.86917 -16.9517 0.433679 18.3828 -2.6771 1.31572e-10 -1.55736e-10 -1.71659e-09 2.00607e-10 -2.65247e-10 -2.97079e-09 1.31561e-10 -1.55736e-10 -1.71658e-09 -7.73091 5.47488 -0.417314 1.31572e-10 -1.55737e-10 -1.71658e-09 -2.90554 0.965183 -0.102902 1.31566e-10 -1.55737e-10 -1.71659e-09 -10.2786 0.731801 -0.0259123 1.31575e-10 -1.55738e-10 -1.7166e-09 -2.22167 -0.733487 0.20892 -2.03217e-16 0.0 -3.88251e-19 -0.475275 -2.77279 -0.516645 -0.36773 40.4771 0.604202 -0.462395 6.92076 -0.997004 2.03217e-16 0.0 3.88251e-19 -3.08431 -28.3667 1.96187 0.131848 23.978 0.0386531 0.608274 -0.212216 1.72559
-40.7964 83.5799 21.8403 -1.2009 28.8796 2.3202 1.65715 6.06697 2.39322 1.04299 -2.59928 0.625625 -8.98746 -0.0939586 -3.1602 6.58582 4.06249 -3.74196 -0.0 0.0 0.0 -0.0 0.0 0.0 -1.57953e-14 -8.43213e-14 2.95625e-13 77.0993 9.53505 -2.10649 -16.6895 -9.34393 31.1418 -0.00867359 2.65666 0.37364 -2.70643e-10 -3.3992e-10 6.99021e-10 -4.62791e-10 -5.94398e-10 1.21027e-09 -2.70639e-10 -3.39928e-10 6.99008e-10 7.73091 5.47488 0.417314 -2.70643e-10 -3.39918e-10 6.99012e-10 2.90554 0.965183 0.102902 -2.70635e-10 -3.39918e-10 6.99023e-10 10.2786 0.731801 0.0259123 -2.70645e-10 -3.39918e-10 6.99036e-10 2.22167 -0.733487 -0.20892 -1.59379e-14 -8.43238e-14 2.95419e-13 -84.9657 5.03761 4.5362 9.61567 -3.91062 -17.0832 0.422787 18.16 -2.64234 -4.10371e-10 -1.00048e-09 -1.67263e-09 -7.33461e-10 -1.728e-09 -2.88575e-09 -4.10387e-10 -1.00048e-09 -1.67262e-09 -7.73091 5.47488 -0.417314 -4.10371e-10 -1.00048e-09 -1.67262e-09 -2.90554 0.965183 -0.102902 -4.10378e-10 -1.00048e-09 -1.67263e-09 -10.2786 0.731801 -0.0259123 -4.10364e-10 -1.00048e-09 -1.67264e-09 -2.22167 -0.733487 0.20892 -2.03217e-16 0.0 -3.88251e-19 -0.940167 -4.24083 -0.978484 -0.430792 43.1336 0.659461 -0.483946 9.62801 -0.0491596 2.03217e-16 0.0 3.88251e-19 -3.335 -27.989 2.12235 0.13329 24.3504 0.0581693 0.554605 -0.295599 0.946478
-40.2139 83.6196 22.4954 -1.013 29.1748 2.1748 1.36642 6.17538 2.26562 1.04598 -2.61162 0.575837 -8.92527 -0.0609078 -3.1646 6.46321 3.84918 -3.75889 -0.0 0.0 0.0 -0.0 0.0 0.0 -1.7025e-14 -8.26927e-14 3.34058e-13 77.3747 9.18523 -2.32105 -16.7094 -9.36334 31.1849 -0.00889768 2.69222 0.378649 -4.34779e-10 -1.10677e-10 6.17323e-10 -7.46971e-10 -1.98209e-10 1.0693e-09 -4.34774e-10 -1.10683e-10 6.17307e-10 7.73091 5.47488 0.417314 -4.34779e-10 -1.10673e-10 6.17314e-10 2.90554 0.965183 0.102902 -4.34769e-10 -1.10673e-10 6.17325e-10 10.2786 0.731801 0.0259123 -4.3478e-10 -1.10673e-10 6.17339e-10 2.22167 -0.733487 -0.20892 -1.71671e-14 -8.26973e-14 3.33859e-13 -84.9111 5.49474 4.49396 9.7099 -3.96686 -17.2585 0.406695 17.8344 -2.59157 -5.29028e-10 -1.01391e-09 -1.41446e-09 -9.34054e-10 -1.75122e-09 -2.43713e-09 -5.29047e-10 -1.01391e-09 -1.41445e-09 -7.73091 5.47488 -0.417314 -5.29028e-10 -1.01391e-09 -1.41446e-09 -2.90554 0.965183 -0.102902 -5.29036e-10 -1.01391e-09 -1.41446e-09 -10.2786 0.731801 -0.0259123 -5.2902e-10 -1.01391e-09 -1.41447e-09 -2.22167 -0.733487 0.20892 -2.03217e-16 0.0 -3.88251e-19 -1.50632 -5.73272 -1.31492 -0.500425 45.7248 0.721172 -0.560645 12.1644 0.680413 2.03217e-16 0.0 3.88251e-19 -3.73897 -27.4807 2.24677 0.131458 24.5445 0.0792255 0.512157 -0.361258 0.329127
-39.6006 83.6826 23.1575 -0.378 29.4239 2.2372 0.74001 6.2855 2.15564 1.13436 -2.62579 0.527117 -8.79469 0.0101141 -3.11517 6.32503 3.6448 -3.6944 -0.0 0.0 0.0 -0.0 0.0 0.0 -1.55477e-14 -1.49376e-14 2.05949e-13 77.6349 9.02972 -2.51526 -16.7015 -9.35556 31.1679 -0.00856031 2.64202 0.371577 2.11093e-10 -1.27105e-10 -2.89504e-10 3.67493e-10 -2.20538e-10 -5.03769e-10 2.11098e-10 -1.27107e-10 -2.89523e-10 7.73091 5.47488 0.417314 2.11091e-10 -1.27099e-10 -2.89513e-10 2.90554 0.965183 0.102902 2.111e-10 -1.27099e-10 -2.89503e-10 10.2786 0.731801 0.0259123 2.11092e-10 -1.27099e-10 -2.8949e-10 2.22167 -0.733487 -0.20892 -1.56501e-14 -1.49431e-14 2.05743e-13 -84.8176 6.19329 4.4584 9.84276 -4.047 -17.5057 0.381824 17.3208 -2.5118 1.02127e-10 4.94877e-10 -7.60851e-10 1.64942e-10 8.61552e-10 -1.31673e-09 1.02111e-10 4.94876e-10 -7.60843e-10 -7.73091 5.47488 -0.417314 1.02127e-10 4.94874e-10 -7.60848e-10 -2.90554 0.965183 -0.102902 1.02119e-10 4.94874e-10 -7.60851e-10 -10.2786 0.731801 -0.0259123 1.02136e-10 4.94875e-10 -7.60861e-10 -2.22167 -0.733487 0.20892 -2.03217e-16 0.0 -3.88251e-19 -2.23054 -7.26568 -1.43904 -0.578457 48.2778 0.791298 -0.657761 14.7373 1.20418 2.03217e-16 0.0 3.88251e-19 -4.37964 -26.7617 2.34765 0.124891 24.4542 0.105011 0.486124 -0.378359 -0.0769342
-39.0319 83.7434 23.7937 0.1166 29.6313 2.3119 -0.0902297 6.40034 2.06185 1.27263 -2.64585 0.4805 -8.60687 0.120756 -3.02818 6.16213 3.41984 -3.57588 -0.0 0.0 0.0 -0.0 0.0 0.0 -1.06173e-14 9.21892e-14 -2.77056e-14 77.8886 9.0103 -2.6983 -16.6749 -9.3296 31.1107 -0.0078137 2.52504 0.355103 1.35052e-09 -2.65444e-10 -1.73912e-09 2.33405e-09 -4.49671e-10 -3.01877e-09 1.35052e-09 -2.65441e-10 -1.73914e-09 7.73091 5.47488 0.417314 1.35051e-09 -2.65437e-10 -1.73913e-09 2.90554 0.965183 0.102902 1.35052e-09 -2.65436e-10 -1.73912e-09 10.2786 0.731801 0.0259123 1.35051e-09 -2.65436e-10 -1.73911e-09 2.22167 -0.733487 -0.20892 -1.06533e-14 9.21834e-14 -2.79261e-14 -84.6924 7.08616 4.42573 10.0055 -4.1457 -17.8102 0.352284 16.674 -2.41218 1.19654e-09 2.99011e-09 1.63548e-10 2.06725e-09 5.18251e-09 2.64607e-10 1.19653e-09 2.99011e-09 1.63559e-10 -7.73091 5.47488 -0.417314 1.19654e-09 2.9901e-09 1.6355e-10 -2.90554 0.965183 -0.102902 1.19653e-09 2.9901e-09 1.63546e-10 -10.2786 0.731801 -0.0259123 1.19655e-09 2.9901e-09 1.63538e-10 -2.22167 -0.733487 0.20892 -2.03217e-16 0.0 -3.88251e-19 -3.03771 -8.84582 -1.42627 -0.667222 50.8001 0.87262 -0.765723 17.3738 1.59302 2.03217e-16 0.0 3.88251e-19 -5.15884 -25.9037 2.42593 0.11535 24.1789 0.132899 0.472853 -0.383662 -0.333874
-38.4225 83.8095 24.3946 0.6272 29.8825 2.4584 -0.926857 6.51882 1.95466 1.42554 -2.6672 0.43081 -8.44928 0.220742 -2.93805 6.03529 3.20827 -3.44326 -0.0 0.0 0.0 -0.0 0.0 0.0 -5.83681e-15 1.93775e-13 -2.55396e-13 78.1131 9.04837 -2.84904 -16.6378 -9.29345 31.0309 -0.00692725 2.376 0.334118 2.42367e-09 -4.01781e-10 -3.08652e-09 4.18613e-09 -6.75834e-10 -5.35645e-09 2.42368e-09 -4.01773e-10 -3.08655e-09 7.73091 5.47488 0.417314 2.42367e-09 -4.01774e-10 -3.08653e-09 2.90554 0.965183 0.102902 2.42367e-09 -4.01772e-10 -3.08652e-09 10.2786 0.731801 0.0259123 2.42367e-09 -4.01771e-10 -3.08651e-09 2.22167 -0.733487 -0.20892 -5.80487e-15 1.93769e-13 -2.55634e-13 -84.56 8.00021 4.34985 10.17 -4.24592 -18.1195 0.325636 16.0448 -2.31618 2.23444e-09 5.31907e-09 1.04445e-09 3.87132e-09 9.21546e-09 1.77156e-09 2.23443e-09 5.31908e-09 1.04447e-09 -7.73091 5.47488 -0.417314 2.23444e-09 5.31907e-09 1.04445e-09 -2.90554 0.965183 -0.102902 2.23443e-09 5.31907e-09 1.04445e-09 -10.2786 0.731801 -0.0259123 2.23445e-09 5.31907e-09 1.04444e-09 -2.22167 -0.733487 0.20892 -2.03217e-16 0.0 -3.88251e-19 -3.82034 -10.4308 -1.41401 -0.765475 53.2246 0.963189 -0.837934 19.5904 1.75055 2.03217e-16 0.0 3.88251e-19 -5.9605 -25.0337 2.45436 0.105606 23.8826 0.157354 0.466699 -0.418974 -0.506497
